<?xml version="1.0" standalone="no"?>
<!DOCTYPE svg PUBLIC "-//W3C//DTD SVG 20010904//EN"
 "http://www.w3.org/TR/2001/REC-SVG-20010904/DTD/svg10.dtd">
<svg version="1.0" xmlns="http://www.w3.org/2000/svg"
 width="1000.000000pt" height="1000.000000pt" viewBox="0 0 1000.000000 1000.000000"
 preserveAspectRatio="xMidYMid meet">
<metadata>
Created by potrace 1.14, written by Peter Selinger 2001-2017
</metadata>
<g transform="translate(0.000000,1000.000000) scale(0.100000,-0.100000)"
fill="#000000" stroke="none">
<path d="M460 7784 c0 -4 451 -1264 1002 -2800 l1002 -2794 816 0 816 0 1002
2794 c551 1537 1002 2797 1002 2800 0 3 -323 6 -718 6 l-718 0 -690 -2200
-689 -2199 -16 47 c-9 26 -321 1016 -694 2200 l-678 2152 -719 0 c-395 0 -718
-3 -718 -6z"/>
<path d="M5757 6393 c-3 -5 -194 -537 -426 -1183 l-421 -1175 0 -918 0 -917
515 0 515 0 2 1236 3 1236 540 -891 540 -890 195 0 195 -1 540 895 540 895 3
-1240 2 -1240 520 0 520 0 0 2100 0 2100 -549 0 -549 0 -602 -997 c-331 -549
-608 -1004 -614 -1011 -10 -10 -141 201 -622 998 l-609 1010 -117 0 c-64 0
-119 -3 -121 -7z"/>
</g>
</svg>
