<svg width="21" height="21" viewBox="0 0 21 21" fill="none" xmlns="http://www.w3.org/2000/svg">
<path fill-rule="evenodd" clip-rule="evenodd" d="M5.61628 0C2.51449 0 0 2.4002 0 5.36099V14.6845C0 17.6453 2.51449 20.0455 5.61628 20.0455H15.3837C18.4855 20.0455 21 17.6453 21 14.6845V5.36099C21 2.4002 18.4855 0 15.3837 0H5.61628ZM9.67128 9.73877C9.33465 8.64405 8.28029 7.87427 7.07971 7.87427C5.61988 7.87427 4.37623 9.01241 4.37623 10.489C4.37623 11.9655 5.61988 13.1037 7.07971 13.1037C8.28043 13.1037 9.33489 12.3337 9.6714 11.2388L15.8679 11.2388L15.8691 11.2388L15.8703 11.2388H15.8704C16.2846 11.2388 16.6204 10.903 16.6204 10.4888C16.6204 10.474 16.62 10.4593 16.6191 10.4447V8.62408C16.6191 8.20986 16.2834 7.87408 15.8691 7.87408C15.4549 7.87408 15.1191 8.20986 15.1191 8.62408V9.73877H14.1777V8.62402C14.1777 8.20981 13.8419 7.87402 13.4277 7.87402C13.0135 7.87402 12.6777 8.20981 12.6777 8.62402V9.73877L9.67128 9.73877ZM8.2832 10.489C8.2832 9.90583 7.77765 9.37427 7.07971 9.37427C6.38178 9.37427 5.87623 9.90583 5.87623 10.489C5.87623 11.0721 6.38178 11.6037 7.07971 11.6037C7.77765 11.6037 8.2832 11.0721 8.2832 10.489Z" fill="black"/>
</svg>
