<svg width="21" height="21" viewBox="0 0 21 21" fill="none" xmlns="http://www.w3.org/2000/svg">
<path d="M10.5 0C4.70112 0 0 4.70112 0 10.5C0 16.2989 4.70112 21 10.5 21C16.2989 21 20.9999 16.2989 20.9999 10.5C21 4.70112 16.2989 0 10.5 0ZM4.05855 15.2793C3.19825 14.0574 2.67548 12.431 2.62716 10.9828H7.12069C6.95702 12.431 5.43395 14.5228 4.05855 15.2793ZM10.5 18.3849C8.98266 18.3849 7.56915 17.9533 6.36903 17.2089C6.97388 16.3645 7.7048 14.6836 10.7018 14.6836C13.5983 14.6836 14.3031 15.8485 15.0345 16.941C13.7528 17.8491 12.1911 18.3849 10.5 18.3849ZM9.23276 11.2241C9.23276 10.4575 9.85408 9.8362 10.6207 9.8362C11.3873 9.8362 12.0086 10.4575 12.0086 11.2241C12.0086 11.9907 11.3873 12.612 10.6207 12.612C9.85408 12.612 9.23276 11.9908 9.23276 11.2241ZM17.0375 15.1306C14.8824 14.2646 14.6039 12.431 14.4523 10.9828H18.3728C18.3265 12.431 17.8379 13.9372 17.0375 15.1306ZM2.92502 8.56894C3.86934 5.18961 6.89962 2.85647 10.5 2.85647C14.1004 2.85647 17.1307 5.18966 18.0749 8.56894H2.92502Z" fill="black"/>
</svg>
