<svg width="12" height="15" fill="none" xmlns="http://www.w3.org/2000/svg">
    <path fill-rule="evenodd" clip-rule="evenodd" d="M.03 5.038c.225-1.814 1.71-3.214 3.508-3.214H8.46c1.798 0 3.282 1.4 3.509 3.214H.03ZM8.768.859a.472.472 0 0 0-.462.483V3.27c0 .266.207.482.462.482a.472.472 0 0 0 .461-.482V1.342A.472.472 0 0 0 8.77.859ZM3.23.86a.472.472 0 0 0-.461.483V3.27c0 .266.206.482.461.482a.472.472 0 0 0 .462-.482V1.342A.472.472 0 0 0 3.23.859Z" fill="#2B3F6C"/>
    <path opacity=".3" fill-rule="evenodd" clip-rule="evenodd" d="M0 6.002v4.661c0 2.042 1.584 3.697 3.538 3.697h4.924c1.954 0 3.538-1.655 3.538-3.697v-4.66H0Zm2.616 2.572a.472.472 0 0 1-.462-.482c0-.267.207-.482.462-.482h.615c.255 0 .462.215.462.482a.472.472 0 0 1-.462.482h-.615Zm2.615-.482c0 .266.207.482.462.482h.615a.472.472 0 0 0 .462-.482.472.472 0 0 0-.462-.482h-.615a.472.472 0 0 0-.462.482Zm3.077 0c0 .266.207.482.462.482h.615a.472.472 0 0 0 .462-.482.472.472 0 0 0-.462-.482H8.77a.472.472 0 0 0-.462.482Zm-6.154 2.571c0 .267.207.482.462.482h.615a.472.472 0 0 0 .462-.482.472.472 0 0 0-.462-.482h-.615a.472.472 0 0 0-.462.482Zm3.077 0c0 .267.207.482.462.482h.615a.472.472 0 0 0 .462-.482.472.472 0 0 0-.462-.482h-.615a.472.472 0 0 0-.462.482Zm3.077 0c0 .267.207.482.462.482h.615a.472.472 0 0 0 .462-.482.472.472 0 0 0-.462-.482H8.77a.472.472 0 0 0-.462.482Z" fill="#2B3F6C"/>
</svg>
