<svg width="10" height="10" viewBox="0 0 10 10" fill="#367FEF" xmlns="http://www.w3.org/2000/svg">
<g clip-path="url(#clip0_1703_4077)">
<path d="M0 0V10H4.88281V9.98047C4.33617 9.89975 3.75928 9.54967 3.30078 9.25885C2.48934 8.74418 1.7178 8.01977 1.25603 7.16797C0.671453 6.08965 0.527344 4.74238 0.527344 3.53516C0.527344 2.97568 0.533457 2.41096 0.599893 1.85547C0.622623 1.66542 0.599613 1.41166 0.718754 1.25084C0.80841 1.12983 0.957598 1.10379 1.09375 1.06593L1.79688 0.870617C2.43488 0.693232 3.07449 0.5206 3.71094 0.337713C4.09164 0.228316 4.49107 0.0771678 4.88281 0.0195312L4.43359 0H3.4375H0Z" fill="white"/>
<path d="M4.88281 0.00903294C4.5867 0.0623082 4.29428 0.172272 4.00391 0.250914C3.24738 0.455804 2.49607 0.680959 1.73828 0.881127C1.50311 0.943248 1.27031 1.01431 1.03516 1.07644C0.895672 1.11329 0.75409 1.15004 0.683594 1.2891C0.60359 1.44692 0.620496 1.66363 0.599893 1.8359C0.542875 2.31264 0.527344 2.80103 0.527344 3.28121C0.527344 4.58437 0.621633 6.01725 1.25603 7.18746C1.6183 7.85572 2.18025 8.43523 2.77344 8.90209C3.2598 9.28488 3.80172 9.5891 4.375 9.82025C4.60311 9.91225 4.86561 10.0362 5.11719 9.99088C5.66574 9.89217 6.2366 9.56865 6.69922 9.27129C7.51078 8.74961 8.27941 8.04439 8.74397 7.18746C9.33217 6.10248 9.47266 4.7493 9.47266 3.53512C9.47266 2.96908 9.46732 2.39793 9.4001 1.8359C9.37775 1.64895 9.40225 1.38871 9.28125 1.23248C9.14326 1.05431 8.78004 1.02546 8.57422 0.968234C7.95572 0.796271 7.33637 0.626978 6.71875 0.451921C6.33516 0.343197 5.94963 0.240994 5.56641 0.130998C5.35031 0.0689695 5.1107 -0.0319698 4.88281 0.00903294Z" fill="#367FEF"/>
<path d="M5.11643 0V0.0195312C5.50816 0.0771678 5.9076 0.228316 6.2883 0.337713C6.92475 0.5206 7.56435 0.693232 8.20236 0.870617L8.90549 1.06593C9.04164 1.10379 9.19082 1.12983 9.28049 1.25084C9.39963 1.41166 9.37662 1.66542 9.39934 1.85547C9.46578 2.41096 9.47189 2.97568 9.47189 3.53516C9.47189 4.74238 9.32779 6.08965 8.7432 7.16797C8.28143 8.01977 7.5099 8.74418 6.69846 9.25885C6.23939 9.55002 5.66379 9.89963 5.11643 9.98047V10H9.99924V0H5.11643ZM4.62814 5.09766L3.80783 4.27734C3.68072 4.15023 3.54738 3.971 3.37814 3.89918C3.10211 3.78203 2.63928 4.23111 2.61828 4.49219C2.59912 4.73035 2.83623 4.88777 2.98752 5.03906L4.13986 6.19141C4.28789 6.33943 4.46488 6.59584 4.70627 6.52453C4.82717 6.48883 4.9133 6.375 4.99924 6.28906L5.50705 5.78125L6.95236 4.33594C7.16527 4.12303 7.48514 3.89506 7.6342 3.63281C7.81955 3.30678 7.19889 2.69854 6.87424 2.86953C6.57949 3.02477 6.32721 3.37906 6.09299 3.61328L5.13596 4.57031C4.96707 4.7392 4.76578 4.90227 4.62814 5.09766Z" fill="white"/>
</g>
<defs>
<clipPath id="clip0_1703_4077">
<rect width="10" height="10" fill="white"/>
</clipPath>
</defs>
</svg>
