<svg width="34" height="34" fill="none" xmlns="http://www.w3.org/2000/svg">
    <g filter="url(#a)" shape-rendering="crispEdges">
        <rect x="4" y="4" width="26" height="26" rx="13" fill="url(#b)"/>
        <rect x="4.125" y="4.125" width="25.75" height="25.75" rx="12.875" stroke="url(#c)" stroke-opacity=".7" stroke-width=".25"/>
    </g>
    <g filter="url(#d)">
        <path fill-rule="evenodd" clip-rule="evenodd" d="M8.585 7.522c2.282 2.268 3.754 5.33 3.944 8.728h3.72V4.347a12.88 12.88 0 0 1 1.5 0V16.25h3.72a13.705 13.705 0 0 1 3.85-8.814c.378.329.736.68 1.072 1.05a12.204 12.204 0 0 0-3.42 7.764h6.683a12.929 12.929 0 0 1 0 1.5h-6.683a12.205 12.205 0 0 0 3.42 7.764c-.336.37-.694.721-1.072 1.05a13.705 13.705 0 0 1-3.85-8.814h-3.72v11.903a12.877 12.877 0 0 1-1.5 0V17.75h-3.72c-.19 3.398-1.66 6.46-3.943 8.729a12.759 12.759 0 0 1-1.06-1.06c2.014-2.002 3.313-4.689 3.5-7.669H4.349a12.872 12.872 0 0 1 0-1.5h6.678c-.187-2.98-1.487-5.667-3.501-7.668.332-.374.686-.728 1.06-1.06Z" fill="#3B68FF"/>
    </g>
    <defs>
        <linearGradient id="b" x1="-4.45" y1="-6.4" x2="43.65" y2="36.5" gradientUnits="userSpaceOnUse">
            <stop stop-color="#344EA6" stop-opacity=".26"/>
            <stop offset=".505" stop-color="#587EFF" stop-opacity=".12"/>
            <stop offset="1" stop-color="#829EFF" stop-opacity=".04"/>
        </linearGradient>
        <linearGradient id="c" x1="4.65" y1="7.9" x2="27.4" y2="27.4" gradientUnits="userSpaceOnUse">
            <stop stop-color="#fff" stop-opacity=".15"/>
            <stop offset="1" stop-color="#fff" stop-opacity=".44"/>
        </linearGradient>
        <filter id="a" x="0" y="0" width="34" height="34" filterUnits="userSpaceOnUse" color-interpolation-filters="sRGB">
            <feFlood flood-opacity="0" result="BackgroundImageFix"/>
            <feGaussianBlur in="BackgroundImage" stdDeviation="1"/>
            <feComposite in2="SourceAlpha" operator="in" result="effect1_backgroundBlur_0_1"/>
            <feColorMatrix in="SourceAlpha" values="0 0 0 0 0 0 0 0 0 0 0 0 0 0 0 0 0 0 127 0" result="hardAlpha"/>
            <feOffset/>
            <feGaussianBlur stdDeviation="2"/>
            <feComposite in2="hardAlpha" operator="out"/>
            <feColorMatrix values="0 0 0 0 0.231373 0 0 0 0 0.407843 0 0 0 0 1 0 0 0 0.1 0"/>
            <feBlend in2="effect1_backgroundBlur_0_1" result="effect2_dropShadow_0_1"/>
            <feBlend in="SourceGraphic" in2="effect2_dropShadow_0_1" result="shape"/>
            <feColorMatrix in="SourceAlpha" values="0 0 0 0 0 0 0 0 0 0 0 0 0 0 0 0 0 0 127 0" result="hardAlpha"/>
            <feOffset/>
            <feGaussianBlur stdDeviation="1.5"/>
            <feComposite in2="hardAlpha" operator="arithmetic" k2="-1" k3="1"/>
            <feColorMatrix values="0 0 0 0 0.231373 0 0 0 0 0.407843 0 0 0 0 1 0 0 0 0.38 0"/>
            <feBlend in2="shape" result="effect3_innerShadow_0_1"/>
        </filter>
        <filter id="d" x="2.326" y="2.325" width="29.35" height="29.35" filterUnits="userSpaceOnUse" color-interpolation-filters="sRGB">
            <feFlood flood-opacity="0" result="BackgroundImageFix"/>
            <feColorMatrix in="SourceAlpha" values="0 0 0 0 0 0 0 0 0 0 0 0 0 0 0 0 0 0 127 0" result="hardAlpha"/>
            <feOffset/>
            <feGaussianBlur stdDeviation="1"/>
            <feComposite in2="hardAlpha" operator="out"/>
            <feColorMatrix values="0 0 0 0 0.231373 0 0 0 0 0.407843 0 0 0 0 1 0 0 0 0.35 0"/>
            <feBlend in2="BackgroundImageFix" result="effect1_dropShadow_0_1"/>
            <feBlend in="SourceGraphic" in2="effect1_dropShadow_0_1" result="shape"/>
        </filter>
    </defs>
</svg>
