<svg width="31" height="15" fill="none" xmlns="http://www.w3.org/2000/svg">
    <path d="M9 12.5a2.5 2.5 0 1 1-5 0 2.5 2.5 0 0 1 5 0ZM28 12.5a2.5 2.5 0 1 1-5 0 2.5 2.5 0 0 1 5 0Z" fill="#98B0FF"/>
    <path d="M28 12.5a2.5 2.5 0 1 1-5 0 2.5 2.5 0 0 1 5 0Z" fill="#98B0FF"/>
    <path d="M0 7.886a2 2 0 0 1 1.298-1.873l2.375-.89A1 1 0 0 0 4.18 4.7l1.946-3.244A3 3 0 0 1 8.7 0h9.718a4 4 0 0 1 3.277 1.706l1.9 2.713a2 2 0 0 0 1.088.776l4.867 1.39A2 2 0 0 1 31 8.51v2.285c0 .709-.482 1.327-1.17 1.498l-.345.087c-.322.08-.653.121-.985.121-.337-3.648-5.663-3.648-6 0h-13c-.337-3.648-5.663-3.648-6 0H2a2 2 0 0 1-2-2V7.886Z" fill="#3B68FF"/>
</svg>
