<svg width="22" height="28" fill="none" xmlns="http://www.w3.org/2000/svg">
    <path d="M6.201 6.426v5.664c0 2.019.895 3.79 2.241 4.794l7.36-7.803V6.426c0-3.129-2.15-5.665-4.8-5.665-2.652 0-4.8 2.536-4.8 5.665Z" fill="#367FEF"/>
    <path d="M15.452 14.215c-.504 1.469-1.514 2.631-2.776 3.186m-6.475-5.31V6.425c0-3.129 2.15-5.665 4.8-5.665 2.651 0 4.8 2.536 4.8 5.665V9.08l-7.359 7.803c-1.346-1.004-2.24-2.775-2.24-4.794ZM20.6 12.92c0 5.656-4.298 10.24-9.6 10.24a9.05 9.05 0 0 1-3.348-.64M1.4 12.92c0 3.284 1.45 6.207 3.702 8.08M11 26.36V23.8" stroke="#367FEF" stroke-width="1.5" stroke-linecap="round"/>
    <path d="m20.6 4.6-18 19.2" stroke="#367FEF" stroke-width="1.5" stroke-linecap="round" stroke-linejoin="round"/>
</svg>
