<svg xmlns="http://www.w3.org/2000/svg" width="1019.242" height="345.971">
    <path style="fill:#000;fill-opacity:1;stroke:none" d="M206.107 53.685c-1.53.02-3.034.049-4.468.094-45.891 1.444-133.845-2.877-170.813 13 0 0-90.48 56.255-122.343 79.344-31.874 23.089-96.882 23.094-172.094 31.75-75.204 8.656-104.188 34.406-104.188 34.406-21.146 28.24-32.431 48.064-36.031 86.813-1.998 10.024 35.842 25.559 35.687 56.28h58.625s7.489-101.694 89.063-100.25c81.583 1.445 85.594 100.25 85.594 100.25h446.187s11.403-98.465 85.375-101.343c73.883-2.889 87.906 101.344 87.906 101.344s66.286-1.515 87.97 0c22.556.897 17.24-32.527 40.78-40.438 8.428-71.977-11.88-64.254-26.968-129.5-34.443-12.989-41.812-11.257-62.157-18.469-14.901-5.252-106.29-68.65-142.875-85.75-35.354-16.545-127.785-28.137-175.25-27.53zm194.282 210.25a67.843 67.843 0 0 0-69.782 67.875 67.844 67.844 0 0 0 135.688 0 67.843 67.843 0 0 0-65.906-67.875zm-619.907.031a67.843 67.843 0 0 0-69.78 67.844 67.844 67.844 0 0 0 135.687 0 67.843 67.843 0 0 0-65.907-67.844z" transform="translate(403.907 -53.662)"/>
</svg>
