<svg width="1920" height="1080" viewBox="0 0 1920 1080" xmlns="http://www.w3.org/2000/svg"><rect width="1920" height="1080" fill="#367fef"/><path d="M 0,1080 C 0,1080 0,360 0,360 C 79.06923076923081,331.85128205128206 158.13846153846163,303.70256410256417 280,314 C 401.8615384615384,324.29743589743583 566.5153846153845,373.0410256410256 674,366 C 781.4846153846155,358.9589743589744 831.8,296.1333333333333 932,281 C 1032.2,265.8666666666667 1182.2846153846153,298.425641025641 1289,348 C 1395.7153846153847,397.574358974359 1459.0615384615385,464.16410256410256 1557,469 C 1654.9384615384615,473.83589743589744 1787.4692307692308,416.9179487179487 1920,360 C 1920,360 1920,1080 1920,1080 Z" fill="#ffffff" opacity="0.19999999999999998"/><path d="M 0,1080 C 0,1080 0,720 0,720 C 89.53333333333333,661.2051282051282 179.06666666666666,602.4102564102565 277,611 C 374.93333333333334,619.5897435897435 481.26666666666665,695.5641025641025 580,763 C 678.7333333333333,830.4358974358975 769.8666666666668,889.3333333333334 903,853 C 1036.1333333333332,816.6666666666666 1211.2666666666667,685.1025641025641 1335,647 C 1458.7333333333333,608.8974358974359 1531.0666666666666,664.2564102564103 1620,692 C 1708.9333333333334,719.7435897435897 1814.4666666666667,719.8717948717949 1920,720 C 1920,720 1920,1080 1920,1080 Z" fill="#ffffff" opacity="0.39999999999999997"/></svg>