<svg width="14" height="14" viewBox="0 0 14 14" fill="none" xmlns="http://www.w3.org/2000/svg">
<path opacity="0.3" fill-rule="evenodd" clip-rule="evenodd" d="M3.67733 0C1.64639 0 0 1.64639 0 3.67733V10.0727C0 12.1036 1.64639 13.75 3.67733 13.75H10.0727C12.1036 13.75 13.75 12.1036 13.75 10.0727V3.67733C13.75 1.64639 12.1036 0 10.0727 0H3.67733ZM6.52355 6.44496C6.22527 5.69559 5.49329 5.16591 4.6376 5.16591C3.51697 5.16591 2.60853 6.07435 2.60853 7.19498C2.60853 8.3156 3.51697 9.22405 4.6376 9.22405C5.4933 9.22405 6.22529 8.69435 6.52356 7.94496L8.78463 7.94496L8.79477 7.94503L8.8049 7.94496H10.3833L10.3935 7.94503C10.8077 7.94503 11.1435 7.60924 11.1435 7.19503V5.91596C11.1435 5.50175 10.8077 5.16596 10.3935 5.16596C9.97925 5.16596 9.64346 5.50175 9.64346 5.91596V6.44496H9.54477V5.91596C9.54477 5.50175 9.20898 5.16596 8.79477 5.16596C8.38056 5.16596 8.04477 5.50175 8.04477 5.91596V6.44496L6.52355 6.44496ZM5.16667 7.19498C5.16667 6.90278 4.92979 6.66591 4.6376 6.66591C4.3454 6.66591 4.10853 6.90278 4.10853 7.19498C4.10853 7.48717 4.3454 7.72405 4.6376 7.72405C4.92979 7.72405 5.16667 7.48717 5.16667 7.19498Z" fill="#2B3F6C"/>
<path d="M10.3947 7.19531L5.91797 7.19531" stroke="#2B3F6C" stroke-width="1.5" stroke-linecap="round" stroke-linejoin="round"/>
<path d="M10.3945 5.91624L10.3945 7.19531" stroke="#2B3F6C" stroke-width="1.5" stroke-linecap="round" stroke-linejoin="round"/>
<path d="M8.79492 5.91624L8.79492 7.19531" stroke="#2B3F6C" stroke-width="1.5" stroke-linecap="round" stroke-linejoin="round"/>
<circle r="1.27907" transform="matrix(-1 0 0 1 4.6389 7.19509)" stroke="#2B3F6C" stroke-width="1.5"/>
</svg>
