<svg width="27" height="37" fill="none" xmlns="http://www.w3.org/2000/svg">
    <path fill-rule="evenodd" clip-rule="evenodd" d="M6.51 17.062c1.031 2.217.716 4.516-.703 5.136-1.42.621-3.407-.672-4.438-2.889-1.032-2.216-.717-4.515.703-5.136 1.42-.62 3.407.674 4.438 2.89ZM20.544 17.062c-1.031 2.217-.716 4.516.704 5.136 1.42.621 3.406-.672 4.438-2.889 1.031-2.216.716-4.515-.704-5.136-1.42-.62-3.406.674-4.438 2.89ZM12.545 12.62c.528 2.375-.277 4.56-1.8 4.878-1.522.317-3.185-1.351-3.714-3.727-.528-2.377.278-4.56 1.8-4.879 1.523-.318 3.185 1.35 3.714 3.727ZM14.473 12.621c-.529 2.376.277 4.56 1.8 4.878 1.522.318 3.184-1.35 3.713-3.726.528-2.377-.277-4.56-1.8-4.879-1.522-.318-3.185 1.35-3.713 3.727ZM10.64 20.563c-.372.622-2.094 2.68-3.285 3.382-1.191.703-2.667 1.731-2.42 4.092.248 2.362 2.748 3.373 4.394 3.283 1.646-.089 4.749-.382 6.964-.085 2.216.298 5.012.072 5.666-2.189.655-2.261-.81-3.702-1.952-4.52-1.143-.816-3.05-3.26-3.639-4.382-.588-1.122-3.58-3.176-5.729.419Z" fill="#367FEF"/>
</svg>
