<svg width="19" height="29" fill="none" xmlns="http://www.w3.org/2000/svg">
    <path d="M11.22 27.418a.829.829 0 0 1-.83-.828v-5.128c0-.459-.377-.875-.835-.875h-.112c-.458 0-.803.416-.803.875v5.128c0 .459-.405.828-.863.828h-2.82c-.457 0-.832.268-.832.583 0 .314.375.583.833.583h9.082c.458 0 .833-.269.833-.583 0-.315-.375-.583-.833-.583h-2.82Z" fill="#367FEF"/>
    <path d="M14.04 29H4.958c-.689 0-1.249-.448-1.249-1 0-.55.56-.999 1.25-.999h2.819c.238 0 .446-.192.446-.41v-5.13c0-.711.547-1.29 1.22-1.29h.111c.678 0 1.251.591 1.251 1.29v5.13c0 .226.186.41.415.41h2.82c.688 0 1.249.448 1.249 1 0 .55-.56.999-1.25.999Zm-9.082-1.166c-.26 0-.406.13-.416.17.01.034.155.163.416.163h9.082c.261 0 .407-.13.417-.17-.01-.034-.156-.163-.417-.163h-2.819a1.247 1.247 0 0 1-1.248-1.244v-5.128c0-.24-.2-.458-.418-.458h-.111c-.232 0-.387.236-.387.457v5.13c0 .674-.586 1.243-1.28 1.243H4.959Z" fill="#367FEF"/>
    <path d="M9.669 21.75h-.338c-2.227 0-4.485-.867-6.195-2.38C1.263 17.714.189 15.414.189 13.058a1.25 1.25 0 0 1 2.5 0c0 1.64.766 3.258 2.102 4.44 1.26 1.115 2.915 1.754 4.54 1.754h.338c1.625 0 3.28-.64 4.54-1.753 1.336-1.183 2.102-2.8 2.102-4.44a1.25 1.25 0 0 1 2.5 0c0 2.355-1.075 4.655-2.947 6.311-1.71 1.513-3.968 2.38-6.195 2.38Z" fill="#367FEF"/>
    <path d="M13.71 12.543c0 2.058-2.02 3.727-4.078 3.727h-.266c-2.058 0-4.079-1.669-4.079-3.727v-8.4c0-2.058 2.02-3.726 4.079-3.726h.265c2.059 0 4.08 1.668 4.08 3.726v8.4Z" fill="#367FEF"/>
    <path d="M9.632 16.686h-.265c-2.395 0-4.496-1.936-4.496-4.143v-8.4C4.871 1.936 6.971 0 9.367 0h.265c2.395 0 4.495 1.936 4.495 4.143v8.4c0 2.207-2.1 4.143-4.495 4.143ZM9.367.833c-1.917 0-3.663 1.578-3.663 3.31v8.4c0 1.733 1.746 3.31 3.663 3.31h.265c1.917 0 3.662-1.577 3.662-3.31v-8.4c0-1.732-1.745-3.31-3.662-3.31h-.265Z" fill="#367FEF"/>
</svg>
